<svg width="17" height="17" viewBox="0 0 17 17" fill="none" xmlns="http://www.w3.org/2000/svg">
<path d="M2.89519 4.5765C3.82375 4.5765 4.5765 3.82375 4.5765 2.89519C4.5765 1.96662 3.82375 1.21387 2.89519 1.21387C1.96662 1.21387 1.21387 1.96662 1.21387 2.89519C1.21387 3.82375 1.96662 4.5765 2.89519 4.5765Z" stroke="white" stroke-linecap="round" stroke-linejoin="round"/>
<path d="M4.57715 2.89453H15.7859" stroke="white" stroke-linecap="round" stroke-linejoin="round"/>
<path d="M8.49968 10.181C9.42824 10.181 10.181 9.42824 10.181 8.49968C10.181 7.57111 9.42824 6.81836 8.49968 6.81836C7.57111 6.81836 6.81836 7.57111 6.81836 8.49968C6.81836 9.42824 7.57111 10.181 8.49968 10.181Z" stroke="white" stroke-linecap="round" stroke-linejoin="round"/>
<path d="M1.21387 8.5H6.81826M10.1809 8.5H15.7853" stroke="white" stroke-linecap="round" stroke-linejoin="round"/>
<path d="M14.1042 15.7855C15.0327 15.7855 15.7855 15.0327 15.7855 14.1042C15.7855 13.1756 15.0327 12.4229 14.1042 12.4229C13.1756 12.4229 12.4229 13.1756 12.4229 14.1042C12.4229 15.0327 13.1756 15.7855 14.1042 15.7855Z" stroke="white" stroke-linecap="round" stroke-linejoin="round"/>
<path d="M12.4227 14.1045H1.21387" stroke="white" stroke-linecap="round" stroke-linejoin="round"/>
</svg>
